# xmcd
#
# Track frame offsets:
#	150
#	13650
#	32747
#	42328
#	55508
#	71859
#	84248
#	99249
#	107995
#	120604
#	133078
#	151194
#	160928
#	173934
#	184712
#	194950
#	206365
#	225165
#	241381
#
# Disc length: 3470 seconds
#
# Revision: 1
# Processed by: cddbd v1.5.2PL0 Copyright (c) Steve Scherf et al.
# Submitted via: audiograbber 1.83.01
#
DISCID=f90d8c13
DTITLE=Ole Lindskov - A Special Christmas Collection
DYEAR=2014
DGENRE=Country
TTITLE0=It's Christmas
TTITLE1=A Winters Tale
TTITLE2=All Wrapped Up In Christmas
TTITLE3=Christmas Island
TTITLE4=Even Santa Claus Get The Blues
TTITLE5=Hangin' Round The Misteltoe
TTITLE6=Have Yourself A Merry Little Christmas
TTITLE7=Here Comes Santa Claus
TTITLE8=How Do I Wrap My Heart Up For Christmas
TTITLE9=I'll Be Home This Christmas
TTITLE10=It Came Upon The Midnight Clear
TTITLE11=Let It Snow, Let It Snow, Let It Snow,
TTITLE12=On A Smowy Christmas Night
TTITLE13=Rockin' Arround The Christmas Tree
TTITLE14=Santa Claus And Popcorn
TTITLE15=Santa Claus Is Comming To Town
TTITLE16=Santa Claus, I Still Belive In You
TTITLE17=This Christmas Prayer
TTITLE18=Thistlehair, The Christmas Bear
EXTD=
EXTT0=
EXTT1=
EXTT2=
EXTT3=
EXTT4=
EXTT5=
EXTT6=
EXTT7=
EXTT8=
EXTT9=
EXTT10=
EXTT11=
EXTT12=
EXTT13=
EXTT14=
EXTT15=
EXTT16=
EXTT17=
EXTT18=
PLAYORDER=
